HIERARCHY
ROOT root
{
	OFFSET 0.000000 0.000000 0.000000
	CHANNELS 6 Xposition Yposition Zposition Zrotation Yrotation Xrotation
	JOINT lhip
	{
		OFFSET 0.058581 -0.082280 -0.017664
		CHANNELS 3 Zrotation Yrotation Xrotation
		JOINT lknee
		{
			OFFSET 0.043451 -0.386469 0.008037
			CHANNELS 3 Zrotation Yrotation Xrotation
			JOINT lankle
			{
				OFFSET -0.014790 -0.426874 -0.037428
				CHANNELS 3 Zrotation Yrotation Xrotation
				JOINT ltoe
				{
					OFFSET 0.041054 -0.060286 0.122042
					CHANNELS 3 Zrotation Yrotation Xrotation
					End Site
					{
						OFFSET 0.000000 0.000000 0.000000
					}
				}
			}
		}
	}
	JOINT rhip
	{
		OFFSET -0.060310 -0.090513 -0.013543
		CHANNELS 3 Zrotation Yrotation Xrotation
		JOINT rknee
		{
			OFFSET -0.043257 -0.383688 -0.004843
			CHANNELS 3 Zrotation Yrotation Xrotation
			JOINT rankle
			{
				OFFSET 0.019056 -0.420046 -0.034562
				CHANNELS 3 Zrotation Yrotation Xrotation
				JOINT rtoe
				{
					OFFSET -0.034840 -0.062106 0.130323
					CHANNELS 3 Zrotation Yrotation Xrotation
					End Site
					{
						OFFSET 0.000000 0.000000 0.000000
					}
				}
			}
		}
	}
	JOINT lowerback
	{
		OFFSET 0.004439 0.124404 -0.038385
		CHANNELS 3 Zrotation Yrotation Xrotation
		JOINT upperback
		{
			OFFSET 0.004488 0.137956 0.026820
			CHANNELS 3 Zrotation Yrotation Xrotation
			JOINT chest
			{
				OFFSET -0.002265 0.056032 0.002855
				CHANNELS 3 Zrotation Yrotation Xrotation
				JOINT lowerneck
				{
					OFFSET -0.013390 0.211636 -0.033468
					CHANNELS 3 Zrotation Yrotation Xrotation
					JOINT upperneck
					{
						OFFSET 0.010113 0.088937 0.050410
						CHANNELS 3 Zrotation Yrotation Xrotation
						End Site
						{
							OFFSET 0.000000 0.000000 0.000000
						}
					}
				}
				JOINT lclavicle
				{
					OFFSET 0.071702 0.114000 -0.018898
					CHANNELS 3 Zrotation Yrotation Xrotation
					JOINT lshoulder
					{
						OFFSET 0.122921 0.045205 -0.019046
						CHANNELS 3 Zrotation Yrotation Xrotation
						JOINT lelbow
						{
							OFFSET 0.255332 -0.015649 -0.022946
							CHANNELS 3 Zrotation Yrotation Xrotation
							JOINT lwrist
							{
								OFFSET 0.265709 0.012698 -0.007375
								CHANNELS 3 Zrotation Yrotation Xrotation
								End Site
								{
									OFFSET 0.000000 0.000000 0.000000
								}
							}
						}
					}
				}
				JOINT rclavicle
				{
					OFFSET -0.082954 0.112472 -0.023707
					CHANNELS 3 Zrotation Yrotation Xrotation
					JOINT rshoulder
					{
						OFFSET -0.113228 0.046853 -0.008472
						CHANNELS 3 Zrotation Yrotation Xrotation
						JOINT relbow
						{
							OFFSET -0.260127 -0.014369 -0.031269
							CHANNELS 3 Zrotation Yrotation Xrotation
							JOINT rwrist
							{
								OFFSET -0.269108 0.006794 -0.006027
								CHANNELS 3 Zrotation Yrotation Xrotation
								End Site
								{
									OFFSET 0.000000 0.000000 0.000000
								}
							}
						}
					}
				}
			}
		}
	}
}
MOTION
Frames: 7
Frame Time: 0.033333
0.618315 -0.494811 0.996737 87.607175 0.082245 83.479010 -0.853671 2.034552 7.893955 -2.157751 -5.832870 4.095880 3.943047 9.494462 -11.516273 0.000000 -0.000000 0.000000 2.321947 -1.189807 1.162731 1.050737 -0.710517 18.141264 0.800618 -7.184045 -15.580366 0.000000 -0.000000 0.000000 0.245577 -1.864041 7.743075 2.753514 -2.923613 1.495336 -0.060413 -1.598393 1.043039 2.387192 1.149570 4.569862 -3.483461 -3.362546 16.109198 -28.236044 1.444335 3.981453 -55.200231 -7.575023 11.049324 6.598542 -29.410362 10.523923 -5.841560 -4.975931 -1.384708 29.626950 3.842770 3.576152 55.584422 6.989628 14.684107 -11.605723 22.098025 -3.191137 6.193090 2.801570 -3.977234 
0.619155 -0.496615 0.996121 87.508060 -0.063379 83.442442 -0.947634 1.875507 7.691770 -2.218390 -5.929591 4.885057 3.924604 9.858615 -11.719101 0.000000 -0.000000 0.000000 2.242346 -1.037006 1.305483 1.119623 -0.826404 18.041531 0.849581 -7.147824 -15.644325 0.000000 -0.000000 0.000000 0.595898 -1.830787 7.828714 2.432924 -2.690961 1.402617 -0.159119 -1.465551 1.289387 2.134299 2.433563 5.205431 -3.488109 -1.661229 16.434633 -28.051979 1.582335 3.993919 -55.734044 -7.447078 10.789794 7.119457 -28.151254 9.938278 -6.183994 -4.148466 -1.818961 29.369186 3.959237 3.714788 56.272595 7.234317 14.741892 -11.623597 21.899321 -4.058729 6.710496 3.637979 -5.635729 
0.621748 -0.499578 0.995747 87.542595 -0.158804 83.434680 -0.875007 1.789658 7.325666 -2.346709 -6.102564 5.829575 3.978765 10.152615 -12.188756 0.000000 -0.000000 0.000000 2.206866 -1.207971 1.493408 1.263442 -0.613597 18.144411 0.898210 -7.056823 -15.742937 0.000000 -0.000000 0.000000 0.806023 -1.632383 7.593324 2.257280 -2.593084 1.616790 -0.221849 -1.315359 1.468169 1.934537 3.123563 5.410924 -3.508889 -0.867782 16.829873 -28.051236 1.618063 4.027260 -55.755362 -6.946590 10.431080 7.286193 -27.207014 9.517273 -5.194399 -4.011060 -2.678582 29.541335 3.877051 4.313047 56.238407 7.300559 14.903453 -11.233932 22.472400 -3.144386 5.662162 2.922764 -5.452268 
0.623449 -0.503165 0.995245 87.840492 -0.110250 83.358517 -0.765266 1.372035 6.046571 -2.507887 -5.871675 8.783376 3.908483 10.355327 -13.247976 0.000000 -0.000000 0.000000 2.271769 -1.730621 1.905658 1.515581 -0.521642 17.959186 1.121212 -6.758084 -16.119615 0.000000 -0.000000 0.000000 1.160201 -1.314882 7.765456 2.162519 -2.419521 1.567324 -0.303369 -1.096663 1.880419 1.891473 3.742047 5.547268 -3.680182 -0.340995 17.128218 -28.202599 1.892574 3.194424 -55.829853 -6.853442 10.160259 7.384448 -25.359336 8.693679 -5.417614 -3.805553 -2.022143 29.901369 3.492849 4.071833 56.318224 7.466174 15.109201 -11.459599 22.379124 -3.127476 5.825545 3.677349 -4.450071 
0.625155 -0.505512 0.994880 87.938648 -0.174495 83.198046 -0.842426 1.136350 5.063096 -2.624207 -5.665057 11.402596 3.831638 10.816061 -13.941778 0.000000 -0.000000 0.000000 2.367897 -1.773139 2.368760 1.602217 -0.161869 17.870090 0.821091 -6.771060 -16.275710 0.000000 -0.000000 0.000000 1.332568 -1.113058 7.955353 2.048530 -2.275063 1.478599 -0.401501 -1.081954 2.260373 1.815890 3.829855 5.232399 -3.868088 -0.005887 17.510236 -28.428301 2.061506 2.973147 -55.438311 -6.714566 9.975506 7.240798 -24.887868 8.838631 -5.068097 -3.581811 -2.113172 29.804531 3.398030 3.760858 56.479724 7.553616 15.238469 -10.925140 21.778404 -2.665641 5.727136 3.424056 -4.772568 
0.627047 -0.509325 0.994320 88.390426 -0.153533 82.919834 -0.837975 0.329336 2.794666 -2.906228 -5.073305 16.473277 3.663641 11.264944 -14.707894 0.000000 -0.000000 0.000000 2.570702 -1.972687 3.337975 1.786605 0.006111 17.026275 0.551719 -6.861381 -16.789089 0.000000 -0.000000 0.000000 1.471003 -0.657154 8.623050 2.055134 -2.391163 1.258480 -0.314117 -1.130903 2.310920 1.831970 3.768704 5.365707 -4.149810 0.597506 17.622949 -28.613777 2.164870 3.250683 -55.179946 -6.308844 9.654953 7.518273 -25.212839 8.787102 -5.504488 -3.413522 -2.426089 29.992457 3.554675 4.194150 56.105449 7.436925 15.077412 -10.758181 21.640213 -2.387554 5.571299 3.355778 -4.584720 
0.628423 -0.512462 0.993453 88.861427 -0.190353 82.434977 -0.883815 -0.426651 -0.379937 -3.335238 -3.815475 23.495512 3.220638 11.331716 -14.379209 0.000000 -0.000000 0.000000 2.665818 -2.187707 4.363665 1.902762 0.113594 16.350914 -0.087881 -6.791775 -16.805233 0.000000 -0.000000 0.000000 1.686378 -0.142751 9.491157 2.077912 -2.577792 1.368196 -0.332087 -1.106632 2.481697 1.349520 3.600025 5.155573 -3.856343 0.528921 17.600669 -28.721482 1.853044 3.517800 -55.001234 -6.159481 9.609912 7.783007 -25.583582 8.463234 -5.459345 -2.964953 -2.610901 29.958385 4.067255 4.432615 55.917053 7.504934 14.844850 -10.661078 21.221340 -2.786208 5.992930 3.466285 -5.171393 
